# xmcd
#
# Track frame offsets:
#	150
#	12670
#	32893
#	47618
#	66810
#	79784
#	96718
#	112616
#	130227
#	145155
#	159090
#
# Disc length: 2323 seconds
# Revision: 0
# Processed by: cddbd v1.5.2PL0 Copyright (c) Steve Scherf et al.
# Submitted via: dBpowerAMP V12.0
#
DISCID=8c09110b
DTITLE=J Wagner - A New Story
DYEAR=2018
DGENRE=Country
TTITLE0=Everybody Wants to Hide
TTITLE1=Burning Time
TTITLE2=Long Parade
TTITLE3=Been Here Before
TTITLE4=Where The House Used to Sit
TTITLE5=Like We Used To
TTITLE6=I'll Bring You Back
TTITLE7=Satellites
TTITLE8=Higher Ground
TTITLE9=Into the Mud
TTITLE10=Border Town
EXTD=
EXTT0=
EXTT1=
EXTT2=
EXTT3=
EXTT4=
EXTT5=
EXTT6=
EXTT7=
EXTT8=
EXTT9=
EXTT10=
PLAYORDER=
